<?xml version="1.0" encoding="UTF-8" standalone="no"?>
<svg
   xmlns:dc="http://purl.org/dc/elements/1.1/"
   xmlns:cc="http://creativecommons.org/ns#"
   xmlns:rdf="http://www.w3.org/1999/02/22-rdf-syntax-ns#"
   xmlns:svg="http://www.w3.org/2000/svg"
   xmlns="http://www.w3.org/2000/svg"
   xmlns:sodipodi="http://sodipodi.sourceforge.net/DTD/sodipodi-0.dtd"
   xmlns:inkscape="http://www.inkscape.org/namespaces/inkscape"
   version="1.1"
   id="svg10"
   xml:space="preserve"
   width="46.865334"
   height="80.503998"
   viewBox="0 0 46.865334 80.503998"
   sodipodi:docname="panda2.svg"
   inkscape:version="1.0.2 (e86c8708, 2021-01-15)"><metadata
     id="metadata16"><rdf:RDF><cc:Work
         rdf:about=""><dc:format>image/svg+xml</dc:format><dc:type
           rdf:resource="http://purl.org/dc/dcmitype/StillImage" /><dc:title></dc:title></cc:Work></rdf:RDF></metadata><defs
     id="defs14" /><sodipodi:namedview
     pagecolor="#ffffff"
     bordercolor="#666666"
     borderopacity="1"
     objecttolerance="10"
     gridtolerance="10"
     guidetolerance="10"
     inkscape:pageopacity="0"
     inkscape:pageshadow="2"
     inkscape:window-width="1153"
     inkscape:window-height="847"
     id="namedview12"
     showgrid="false"
     inkscape:zoom="7.937494"
     inkscape:cx="23.432667"
     inkscape:cy="40.251999"
     inkscape:window-x="287"
     inkscape:window-y="25"
     inkscape:window-maximized="0"
     inkscape:current-layer="g18" /><g
     id="g18"
     inkscape:groupmode="layer"
     inkscape:label="document"
     transform="matrix(1.3333333,0,0,-1.3333333,0,80.504)"><g
       id="g28"
       transform="translate(17.575,-1.417)"><path
         d="M 16.15787,22.11046 C 16.15787,32.28656 8.92384,40.5357 0,40.5357 c -8.92384,0 -16.15787,-8.24914 -16.15787,-18.42524 0,-10.17609 7.23403,-18.42523 16.15787,-18.42523 8.92384,0 16.15787,8.24914 16.15787,18.42523 z"
         style="fill:#f1f1f1;fill-opacity:1;fill-rule:nonzero;stroke:none"
         id="path30" /></g><g
       id="g32"
       transform="translate(17.575,-1.417)"><g
         id="g34"><path
           d="M 10.26398,30.48764 C 8.35141,31.18375 5.7592,28.8858 4.47408,25.35495 3.18893,21.8241 3.69757,18.39752 5.61014,17.7014 c 1.91255,-0.6961 4.50476,1.60184 5.78988,5.13269 1.28515,3.53085 0.77651,6.95743 -1.13604,7.65355 z"
           style="fill:#000000;fill-opacity:1;fill-rule:nonzero;stroke:none"
           id="path36" /></g><g
         id="g38"><path
           d="m -5.61014,17.7014 c 1.91257,0.69612 2.42121,4.1227 1.13606,7.65355 -1.28512,3.53085 -3.87733,5.8288 -5.7899,5.13269 -1.91255,-0.69612 -2.42119,-4.1227 -1.13604,-7.65355 1.28512,-3.53085 3.87733,-5.82879 5.78988,-5.13269 z"
           style="fill:#000000;fill-opacity:1;fill-rule:nonzero;stroke:none"
           id="path40" /></g></g><g
       id="g42"
       transform="translate(17.575,-1.417)"><path
         d="m 14.74043,7.65375 c 0,3.13109 -2.53817,5.66928 -5.66926,5.66928 -3.13109,0 -5.66928,-2.53819 -5.66928,-5.66928 0,-3.13109 2.53819,-5.66928 5.66928,-5.66928 3.13109,0 5.66926,2.53819 5.66926,5.66928 z"
         style="fill:#000000;fill-opacity:1;fill-rule:nonzero;stroke:none"
         id="path44" /></g><g
       id="g46"
       transform="translate(17.575,-1.417)"><path
         d="m -3.40189,7.65375 c 0,3.13109 -2.53819,5.66928 -5.66928,5.66928 -3.13109,0 -5.66926,-2.53819 -5.66926,-5.66928 0,-3.13109 2.53817,-5.66928 5.66926,-5.66928 3.13109,0 5.66928,2.53819 5.66928,5.66928 z"
         style="fill:#000000;fill-opacity:1;fill-rule:nonzero;stroke:none"
         id="path48" /></g><g
       id="g50"
       transform="translate(17.575,-1.417)"><path
         d="m 13.32301,56.69362 c 0,2.34823 -1.90359,4.25183 -4.25184,4.25183 -2.34825,0 -4.25185,-1.9036 -4.25185,-4.25183 0,-2.34825 1.9036,-4.25185 4.25185,-4.25185 2.34825,0 4.25184,1.9036 4.25184,4.25185 z"
         style="fill:#000000;fill-opacity:1;fill-rule:nonzero;stroke:none"
         id="path52" /></g><g
       id="g54"
       transform="translate(17.575,-1.417)"><path
         d="m -4.81932,56.69362 c 0,2.34823 -1.9036,4.25183 -4.25185,4.25183 -2.34825,0 -4.25184,-1.9036 -4.25184,-4.25183 0,-2.34825 1.90359,-4.25185 4.25184,-4.25185 2.34825,0 4.25185,1.9036 4.25185,4.25185 z"
         style="fill:#000000;fill-opacity:1;fill-rule:nonzero;stroke:none"
         id="path56" /></g><g
       id="g58"
       transform="translate(17.575,-1.417)"><path
         d="M 13.88142,45.03152 C 13.07907,51.6991 7.08669,60.01593 0,59.90822 -7.08669,60.01593 -13.07907,51.6991 -13.88142,45.03152 -14.91302,37.6135 -7.78957,35.08487 0,35.08487 c 7.78957,0 14.91302,2.52863 13.88142,9.94665 z"
         style="fill:#f1f1f1;fill-opacity:1;fill-rule:nonzero;stroke:none"
         id="path60" /></g><g
       id="g62"
       transform="translate(17.575,-1.417)"><path
         d="m 10.57901,47.92044 c -0.66353,2.16831 -4.81891,3.27084 -7.90291,2.29591 -3.087,-0.97494 2.228,-6.33842 4.43308,-6.4405 2.2055,-0.10208 4.13031,1.97583 3.46983,4.14459 z"
         style="fill:#000000;fill-opacity:1;fill-rule:nonzero;stroke:none"
         id="path64" /></g><g
       id="g66"
       transform="translate(17.575,-1.417)"><path
         d="m -10.57901,47.92044 c 0.66353,2.16831 4.81891,3.27084 7.90291,2.29591 3.087,-0.97494 -2.228,-6.33842 -4.43308,-6.4405 -2.2055,-0.10208 -4.13031,1.97583 -3.46983,4.14459 z"
         style="fill:#000000;fill-opacity:1;fill-rule:nonzero;stroke:none"
         id="path68" /></g><g
       id="g70"
       transform="translate(17.575,-1.417)"><path
         d="m -3.68478,48.18947 c 0,0.78283 -0.6346,1.41742 -1.41742,1.41742 -0.78283,0 -1.41742,-0.63459 -1.41742,-1.41742 0,-0.78282 0.63459,-1.41742 1.41742,-1.41742 0.78282,0 1.41742,0.6346 1.41742,1.41742 z"
         style="fill:#ffffff;fill-opacity:1;fill-rule:nonzero;stroke:none"
         id="path72" /></g><g
       id="g74"
       transform="translate(17.575,-1.417)"><path
         d="m 6.51962,48.18947 c 0,0.78283 -0.63459,1.41742 -1.41742,1.41742 -0.78282,0 -1.41742,-0.63459 -1.41742,-1.41742 0,-0.78282 0.6346,-1.41742 1.41742,-1.41742 0.78283,0 1.41742,0.6346 1.41742,1.41742 z"
         style="fill:#ffffff;fill-opacity:1;fill-rule:nonzero;stroke:none"
         id="path76" /></g><g
       id="g78"
       transform="translate(17.575,-1.417)"><path
         d="m 5.38594,48.04803 c 0,0.31317 -0.25386,0.56705 -0.56704,0.56705 -0.31318,0 -0.56705,-0.25388 -0.56705,-0.56705 0,-0.31317 0.25387,-0.56704 0.56705,-0.56704 0.31318,0 0.56704,0.25387 0.56704,0.56704 z"
         style="fill:#000000;fill-opacity:1;fill-rule:nonzero;stroke:none"
         id="path80" /></g><g
       id="g82"
       transform="translate(17.575,-1.417)"><path
         d="m -4.25185,48.04803 c 0,0.31317 -0.25387,0.56705 -0.56705,0.56705 -0.31318,0 -0.56704,-0.25388 -0.56704,-0.56705 0,-0.31317 0.25386,-0.56704 0.56704,-0.56704 0.31318,0 0.56705,0.25387 0.56705,0.56704 z"
         style="fill:#000000;fill-opacity:1;fill-rule:nonzero;stroke:none"
         id="path84" /></g><g
       id="g86"
       transform="translate(17.575,-1.417)" /><g
       id="g90"
       transform="translate(17.575,-1.417)"><path
         d="m 1.98447,43.93764 c 0,0.6261 -0.88847,1.13366 -1.98447,1.13366 -1.096,0 -1.98447,-0.50756 -1.98447,-1.13366 0,-0.62612 0.88847,-1.13368 1.98447,-1.13368 1.096,0 1.98447,0.50756 1.98447,1.13368 z"
         style="fill:#000000;fill-opacity:1;fill-rule:nonzero;stroke:none"
         id="path92" /></g><g
       id="g94"
       transform="translate(17.575,-1.417)" /><g
       id="g239"
       transform="translate(17.575,-1.417)"
       style="fill:#f08080"><path
         id="path237"
         style="fill:#f08080;stroke:#000000;stroke-width:0.19925;stroke-linecap:butt;stroke-linejoin:miter;stroke-miterlimit:10;stroke-dasharray:none;stroke-opacity:1"
         d="m 4.53558,41.86836 c 0,0 -2.77819,-3.03338 -4.53558,0.82183 -1.75739,-3.85521 -4.53558,-0.82183 -4.53558,-0.82183 0,0 2.7132694,-3.052189 4.53558,-3.052189 1.8223106,0 4.53558,3.052189 4.53558,3.052189"
         sodipodi:nodetypes="cccsc" /></g></g></svg>
