<?xml version="1.0" encoding="UTF-8" standalone="no"?>
<svg
   xmlns:dc="http://purl.org/dc/elements/1.1/"
   xmlns:cc="http://creativecommons.org/ns#"
   xmlns:rdf="http://www.w3.org/1999/02/22-rdf-syntax-ns#"
   xmlns:svg="http://www.w3.org/2000/svg"
   xmlns="http://www.w3.org/2000/svg"
   xmlns:sodipodi="http://sodipodi.sourceforge.net/DTD/sodipodi-0.dtd"
   xmlns:inkscape="http://www.inkscape.org/namespaces/inkscape"
   version="1.1"
   id="svg833"
   xml:space="preserve"
   width="96.055016"
   height="129.79669"
   viewBox="0 0 96.055016 129.79669"
   sodipodi:docname="roman_bear.svg"
   inkscape:version="1.0.2 (e86c8708, 2021-01-15)"><metadata
     id="metadata839"><rdf:RDF><cc:Work
         rdf:about=""><dc:format>image/svg+xml</dc:format><dc:type
           rdf:resource="http://purl.org/dc/dcmitype/StillImage" /><dc:title></dc:title></cc:Work></rdf:RDF></metadata><defs
     id="defs837"><clipPath
       clipPathUnits="userSpaceOnUse"
       id="clipPath935"><path
         d="M 15.02376,43.93764 C 15.02376,52.23512 8.29749,58.9614 0,58.9614 c -8.29749,0 -15.02376,-6.72628 -15.02376,-15.02376 0,-8.2975 6.72627,-15.02378 15.02376,-15.02378 8.29749,0 15.02376,6.72628 15.02376,15.02378 z M -23.05821,0 V 60.37883 H 23.05821 V 0 Z"
         clip-rule="evenodd"
         id="path933" /></clipPath><clipPath
       clipPathUnits="userSpaceOnUse"
       id="clipPath941"><path
         d="m 19.98453,8.50412 c 0,4.38356 -3.5535,7.93706 -7.93706,7.93706 -4.38356,0 -7.93706,-3.5535 -7.93706,-7.93706 0,-4.38358 3.5535,-7.93706 7.93706,-7.93706 4.38356,0 7.93706,3.55348 7.93706,7.93706 z M -23.05821,0 V 60.37883 H 23.05821 V 0 Z"
         clip-rule="evenodd"
         id="path939" /></clipPath><clipPath
       clipPathUnits="userSpaceOnUse"
       id="clipPath947"><path
         d="m -4.11041,8.50412 c 0,4.38356 -3.5535,7.93706 -7.93706,7.93706 -4.38356,0 -7.93706,-3.5535 -7.93706,-7.93706 0,-4.38358 3.5535,-7.93706 7.93706,-7.93706 4.38356,0 7.93706,3.55348 7.93706,7.93706 z M -23.05821,0 V 60.37883 H 23.05821 V 0 Z"
         clip-rule="evenodd"
         id="path945" /></clipPath><clipPath
       clipPathUnits="userSpaceOnUse"
       id="clipPath953"><path
         d="m -28.3468,17.00824 h 12.75596 l -14.1734,28.34682 z M -23.05821,0 V 60.37883 H 23.05821 V 0 Z"
         clip-rule="evenodd"
         id="path951" /></clipPath><clipPath
       clipPathUnits="userSpaceOnUse"
       id="clipPath959"><path
         d="M 28.3468,17.00824 H 15.59084 l 14.1734,28.34682 z M -23.05821,0 V 60.37883 H 23.05821 V 0 Z"
         clip-rule="evenodd"
         id="path957" /></clipPath><clipPath
       clipPathUnits="userSpaceOnUse"
       id="clipPath965"><path
         d="M -28.3468,14.17339 V 34.01608 H 28.3468 V 14.17339 Z"
         clip-rule="evenodd"
         id="path963" /></clipPath></defs><sodipodi:namedview
     pagecolor="#ffffff"
     bordercolor="#666666"
     borderopacity="1"
     objecttolerance="10"
     gridtolerance="10"
     guidetolerance="10"
     inkscape:pageopacity="0"
     inkscape:pageshadow="2"
     inkscape:window-width="1197"
     inkscape:window-height="847"
     id="namedview835"
     showgrid="false"
     inkscape:zoom="3.5424329"
     inkscape:cx="41.292331"
     inkscape:cy="66.54053"
     inkscape:window-x="0"
     inkscape:window-y="25"
     inkscape:window-maximized="0"
     inkscape:current-layer="g841"
     fit-margin-top="10"
     fit-margin-left="10"
     fit-margin-right="10"
     fit-margin-bottom="10" /><g
     id="g841"
     inkscape:groupmode="layer"
     inkscape:label="document"
     transform="matrix(1.3333333,0,0,-1.3333333,8.6486386,110.85823)"><path
       style="fill:#899fac;fill-opacity:1;stroke:none;stroke-width:0.75px;stroke-linecap:butt;stroke-linejoin:miter;stroke-opacity:1"
       d="M 8.3119747,48.590485 C 13.556447,46.44813 32.532887,46.557826 38.053065,48.81584 39.812254,63.492089 11.353481,72.489956 8.3119747,48.590485 Z"
       id="path1459"
       sodipodi:nodetypes="ccc" /><g
       id="g851"
       transform="translate(23.058)"><path
         d="m 21.25938,17.91167 c 1.79883,1.50943 0.40178,6.13575 -3.12043,10.33331 -3.52222,4.19756 -7.83571,6.37666 -9.63454,4.86723 -1.79884,-1.50943 -0.40179,-6.13575 3.12042,-10.33331 3.52223,-4.19756 7.83571,-6.37668 9.63455,-4.86723 z"
         style="fill:#86592d;fill-opacity:1;fill-rule:nonzero;stroke:none"
         id="path853" /></g><g
       id="g855"
       transform="translate(23.058)"><path
         d="m -8.50441,33.11221 c -1.79883,1.50943 -6.11232,-0.66967 -9.63454,-4.86723 -3.52221,-4.19756 -4.91926,-8.82388 -3.12043,-10.33331 1.79884,-1.50945 6.11232,0.66967 9.63455,4.86723 3.52221,4.19756 4.91926,8.82388 3.12042,10.33331 z"
         style="fill:#86592d;fill-opacity:1;fill-rule:nonzero;stroke:none"
         id="path857" /></g><g
       id="g859"
       transform="matrix(1,0,0,1.2002984,23.058,-7.9489099)"><path
         d="M 15.432546,17.69981 C 15.432546,27.8759 8.61067,39.68533 0,39.68533 -8.61067,39.68533 -15.749094,27.8759 -15.749094,17.69981 -15.749094,7.5237099 -8.61067,2.83485 0,2.83485 c 8.61067,0 15.432546,4.6888599 15.432546,14.86496 z"
         style="fill:#86592d;fill-opacity:1;fill-rule:nonzero;stroke:none"
         id="path861"
         sodipodi:nodetypes="sssss" /></g><g
       id="g863"
       transform="matrix(1,0,0,1.2498294,23.058,-7.7899845)"><path
         d="m 9.92155,19.84267 c 0,6.26217 -4.44198,11.33854 -9.92155,11.33854 -5.47957,0 -9.92155,-5.07637 -9.92155,-11.33854 0,-6.2622 4.44198,-11.33855 9.92155,-11.33855 5.47957,0 9.92155,5.07635 9.92155,11.33855 z"
         style="fill:#dfbf9f;fill-opacity:1;fill-rule:nonzero;stroke:none"
         id="path865" /></g><g
       id="g867"
       transform="matrix(0.74370373,-0.36160893,0.24544088,0.50478648,20.785709,-2.1731913)"><path
         d="m 19.98453,8.50412 c 0,4.38356 -3.5535,7.93706 -7.93706,7.93706 -4.38356,0 -7.93706,-3.5535 -7.93706,-7.93706 0,-4.38358 3.4792904,-6.422484 7.86285,-6.422484 4.38356,0 8.01127,2.038904 8.01127,6.422484 z"
         style="fill:#86592d;fill-opacity:1;fill-rule:nonzero;stroke:none"
         id="path869"
         sodipodi:nodetypes="sssss" /></g><g
       id="g899"
       transform="translate(23.058)"><path
         d="m 14.17339,43.93764 c 0,7.82785 -6.34555,14.17338 -14.17339,14.17338 -7.82784,0 -14.17339,-6.34553 -14.17339,-14.17338 0,-7.82785 6.34555,-14.1734 14.17339,-14.1734 7.82784,0 14.17339,6.34555 14.17339,14.1734 z"
         style="fill:#86592d;fill-opacity:1;fill-rule:nonzero;stroke:none"
         id="path901" /></g><g
       id="g903"
       transform="translate(23.058)"><path
         d="m 7.93706,39.68535 c 0,3.13109 -3.5535,5.66928 -7.93706,5.66928 -4.38356,0 -7.93706,-2.53819 -7.93706,-5.66928 0,-3.13109 3.5535,-5.66927 7.93706,-5.66927 4.38356,0 7.93706,2.53818 7.93706,5.66927 z"
         style="fill:#dfbf9f;fill-opacity:1;fill-rule:nonzero;stroke:none"
         id="path905" /></g><g
       id="g907"
       transform="translate(23.058)"><path
         d="m 4.25183,42.5202 c 0,1.25247 -1.90359,2.26778 -4.25183,2.26778 -2.34824,0 -4.25183,-1.01531 -4.25183,-2.26778 0,-1.25247 1.90359,-2.26779 4.25183,-2.26779 2.34824,0 4.25183,1.01532 4.25183,2.26779 z"
         style="fill:#db8561;fill-opacity:1;fill-rule:nonzero;stroke:none"
         id="path909" /></g><g
       id="g911"
       transform="translate(23.058)"><path
         d="m -2.97629,48.18947 c 0,0.78283 -0.63458,1.41742 -1.4174,1.41742 -0.78284,0 -1.41742,-0.63459 -1.41742,-1.41742 0,-0.78282 0.63458,-1.41742 1.41742,-1.41742 0.78282,0 1.4174,0.6346 1.4174,1.41742 z"
         style="fill:#392613;fill-opacity:1;fill-rule:nonzero;stroke:none"
         id="path913" /></g><g
       id="g915"
       transform="translate(23.058)"><path
         d="m 5.81111,48.18947 c 0,0.78283 -0.63458,1.41742 -1.41742,1.41742 -0.78282,0 -1.4174,-0.63459 -1.4174,-1.41742 0,-0.78282 0.63458,-1.41742 1.4174,-1.41742 0.78284,0 1.41742,0.6346 1.41742,1.41742 z"
         style="fill:#392613;fill-opacity:1;fill-rule:nonzero;stroke:none"
         id="path917" /></g><g
       id="g919"
       transform="translate(23.058)"><path
         d="m 4.1104,39.11873 c -0.8567,-2.35388 -3.45949,-3.56749 -5.81334,-2.71079 -1.25965,0.45848 -2.25231,1.45115 -2.7108,2.71079"
         style="fill:none;stroke:#392613;stroke-width:0.3985;stroke-linecap:butt;stroke-linejoin:miter;stroke-miterlimit:10;stroke-dasharray:none;stroke-opacity:1"
         id="path921" /></g><g
       id="g923"
       transform="translate(23.058)" /><g
       id="g927"
       transform="translate(23.058)" /><g
       id="g929"
       transform="translate(23.058)" /><g
       id="g931"
       clip-path="url(#clipPath935)"
       transform="translate(23.058)"><g
         id="g937"
         clip-path="url(#clipPath941)"><g
           id="g943"
           clip-path="url(#clipPath947)"><g
             id="g949"
             clip-path="url(#clipPath953)"><g
               id="g955"
               clip-path="url(#clipPath959)"><g
                 id="g961"
                 clip-path="url(#clipPath965)"><g
                   id="g967"><path
                     d="m -8.50441,33.11221 c -1.79883,1.50943 -6.11232,-0.66967 -9.63454,-4.86723 -3.52221,-4.19756 -4.91926,-8.82388 -3.12043,-10.33331 1.79884,-1.50945 6.11232,0.66967 9.63455,4.86723 3.52221,4.19756 4.91926,8.82388 3.12042,10.33331 z"
                     style="fill:#b22222;fill-opacity:1;fill-rule:evenodd;stroke:none"
                     id="path969" /></g><g
                   id="g971"><path
                     d="m 21.25938,17.91167 c 1.79883,1.50943 0.40178,6.13575 -3.12043,10.33331 -3.52222,4.19756 -7.83571,6.37666 -9.63454,4.86723 -1.79884,-1.50943 -0.40179,-6.13575 3.12042,-10.33331 3.52223,-4.19756 7.83571,-6.37668 9.63455,-4.86723 z"
                     style="fill:#b22222;fill-opacity:1;fill-rule:evenodd;stroke:none"
                     id="path973" /></g><g
                   id="g975" /></g></g></g></g></g></g><g
       id="g1255"
       transform="matrix(-0.74370373,-0.36160893,-0.24544088,0.50478648,25.542512,-2.1731913)"><path
         d="m 19.98453,8.50412 c 0,4.38356 -3.5535,7.93706 -7.93706,7.93706 -4.38356,0 -7.93706,-3.5535 -7.93706,-7.93706 0,-4.38358 3.4792904,-6.422484 7.86285,-6.422484 4.38356,0 8.01127,2.038904 8.01127,6.422484 z"
         style="fill:#86592d;fill-opacity:1;fill-rule:nonzero;stroke:none"
         id="path1253"
         sodipodi:nodetypes="sssss" /></g><g
       id="g1305"
       transform="matrix(1,0,0,1.2002984,23.058,-7.9489099)"
       style="fill:#8b0000"><path
         d="m 15.432546,15.200431 c 0,1.272011 -0.106592,5.068922 -0.309945,6.36572 -0.203354,1.296798 -0.503469,2.592861 -0.890515,3.861934 -0.387046,1.269074 -0.861024,2.511157 -1.412103,3.699995 -0.551078,1.188839 -1.179258,2.324432 -1.874709,3.380524 -0.69545,1.056092 -0.537315,2.112343 -0.537315,2.112343 0,0 -3.7509418,-4.159335 -10.24968454,-4.165999 -7.06967546,-0.0072 -10.66639146,4.297862 -10.66639146,4.297862 0,0 0.119804,-1.188114 -0.595431,-2.244206 -0.715235,-1.056092 -1.363199,-2.191685 -1.932826,-3.380524 -0.569626,-1.188838 -1.060915,-2.430921 -1.4628,-3.699995 -0.401884,-1.269073 -0.714364,-2.565136 -0.926373,-3.861934 -0.212009,-1.296798 -0.323547,-5.093709 -0.323547,-6.36572 0.552699,-0.811254 2.907018,-4.290097 2.907018,-4.290097 l 4.6476684,2.047792 2.3244516,-4.0977556 5.43383474,2.7227276 5.58727146,-2.808372 3.8926831,4.099114 4.6234787,-1.476849 c 0,0 1.225436,2.837505 1.765234,3.803431 z"
         style="fill:#b22222;fill-opacity:1;fill-rule:nonzero;stroke:none"
         id="path1303"
         sodipodi:nodetypes="csssscscsssscccccccccc" /></g><circle
       style="fill:#fa8072;stroke-width:0.999998;stroke-linecap:round;stroke-linejoin:round;paint-order:stroke markers fill"
       id="path1307"
       cx="11.000076"
       cy="-8.7013903"
       r="0.87050951"
       transform="scale(1,-1)" /><circle
       style="fill:#fa8072;stroke-width:0.999998;stroke-linecap:round;stroke-linejoin:round;paint-order:stroke markers fill"
       id="circle1309"
       cx="11.000076"
       cy="-8.7013903"
       r="0.87050951"
       transform="matrix(1,0,0,-1,7.4388998,-2.2158425)" /><circle
       style="fill:#899fac;stroke-width:0.999998;stroke-linecap:round;stroke-linejoin:round;paint-order:stroke markers fill"
       id="circle1311"
       cx="27.460621"
       cy="-6.1689987"
       r="0.87050951"
       transform="scale(1,-1)" /><circle
       style="fill:#899fac;stroke-width:0.999998;stroke-linecap:round;stroke-linejoin:round;paint-order:stroke markers fill"
       id="circle1313"
       cx="35.690891"
       cy="-9.4927626"
       r="0.87050951"
       transform="scale(1,-1)" /><circle
       style="fill:#fa8072;stroke-width:0.999998;stroke-linecap:round;stroke-linejoin:round;paint-order:stroke markers fill"
       id="circle1315"
       cx="11.000076"
       cy="-8.7013903"
       r="0.87050951"
       transform="scale(1,-1)" /><circle
       style="fill:#fa8072;stroke-width:0.999998;stroke-linecap:round;stroke-linejoin:round;paint-order:stroke markers fill"
       id="circle1317"
       cx="5.777019"
       cy="-25.32021"
       r="0.87050951"
       transform="scale(1,-1)" /><circle
       style="fill:#fa8072;stroke-width:0.999998;stroke-linecap:round;stroke-linejoin:round;paint-order:stroke markers fill"
       id="circle1319"
       cx="5.777019"
       cy="-25.32021"
       r="0.87050951"
       transform="scale(1,-1)" /><circle
       style="fill:#fa8072;stroke-width:0.999998;stroke-linecap:round;stroke-linejoin:round;paint-order:stroke markers fill"
       id="circle1321"
       cx="5.777019"
       cy="-25.32021"
       r="0.87050951"
       transform="scale(1,-1)" /><circle
       style="fill:#fa8072;stroke-width:0.999998;stroke-linecap:round;stroke-linejoin:round;paint-order:stroke markers fill"
       id="circle1323"
       cx="7.2770195"
       cy="-22.32021"
       r="0.87050951"
       transform="scale(1,-1)" /><circle
       style="fill:#899fac;stroke-width:0.999998;stroke-linecap:round;stroke-linejoin:round;paint-order:stroke markers fill"
       id="circle1325"
       cx="-40.277023"
       cy="-25.32021"
       r="0.87050951"
       transform="scale(-1)" /><circle
       style="fill:#899fac;stroke-width:0.999998;stroke-linecap:round;stroke-linejoin:round;paint-order:stroke markers fill"
       id="circle1327"
       cx="-40.277023"
       cy="-25.32021"
       r="0.87050951"
       transform="scale(-1)" /><circle
       style="fill:#899fac;stroke-width:0.999998;stroke-linecap:round;stroke-linejoin:round;paint-order:stroke markers fill"
       id="circle1329"
       cx="-40.277023"
       cy="-25.32021"
       r="0.87050951"
       transform="scale(-1)" /><circle
       style="fill:#899fac;stroke-width:0.999998;stroke-linecap:round;stroke-linejoin:round;paint-order:stroke markers fill"
       id="circle1331"
       cx="-38.777023"
       cy="-22.32021"
       r="0.87050951"
       transform="scale(-1)" /><ellipse
       style="fill:#b3d0e0;stroke-width:1.50709;stroke-linecap:round;stroke-linejoin:round;paint-order:stroke markers fill"
       id="path1333"
       cx="39.965729"
       cy="-13.680075"
       transform="scale(1,-1)"
       rx="18.089056"
       ry="17.341034" /><ellipse
       style="fill:#899fac;stroke-width:1.57432;stroke-linecap:round;stroke-linejoin:round;paint-order:stroke markers fill"
       id="circle1335"
       cx="13.680075"
       cy="55.642914"
       transform="matrix(0,1,1,0,0,0)"
       rx="1.3418252"
       ry="1.3997062" /><ellipse
       style="fill:#899fac;stroke-width:1.57457;stroke-linecap:round;stroke-linejoin:round;paint-order:stroke markers fill"
       id="circle1337"
       cx="48.865208"
       cy="-24.808149"
       transform="matrix(0.95244804,-0.30470105,-0.32875846,-0.94441404,0,0)"
       rx="1.3940146"
       ry="1.3477373" /><ellipse
       style="fill:#899fac;stroke-width:1.575;stroke-linecap:round;stroke-linejoin:round;paint-order:stroke markers fill"
       id="circle1339"
       cx="-36.262592"
       cy="-35.96777"
       transform="matrix(-0.66911043,-0.74316299,-0.77045299,0.63749681,0,0)"
       rx="1.3668362"
       ry="1.3752933" /><ellipse
       style="fill:#899fac;stroke-width:1.57457;stroke-linecap:round;stroke-linejoin:round;paint-order:stroke markers fill"
       id="circle1341"
       cx="-13.785145"
       cy="45.433342"
       transform="matrix(-0.32539542,0.94557804,0.95345616,0.30153166,0,0)"
       rx="1.3476162"
       ry="1.3941317" /><ellipse
       style="fill:#899fac;stroke-width:1.57473;stroke-linecap:round;stroke-linejoin:round;paint-order:stroke markers fill"
       id="circle1343"
       cx="38.874008"
       cy="-16.457779"
       transform="matrix(0.91240758,-0.40928279,-0.43864408,-0.89866088,0,0)"
       rx="1.389487"
       ry="1.3524046" /><ellipse
       style="fill:#899fac;stroke-width:1.57448;stroke-linecap:round;stroke-linejoin:round;paint-order:stroke markers fill"
       id="circle1345"
       cx="-35.675941"
       cy="-10.044456"
       transform="matrix(-0.97066457,-0.24043773,-0.26024742,0.96554196,0,0)"
       rx="1.396154"
       ry="1.345521" /><ellipse
       style="fill:#899fac;stroke-width:1.57482;stroke-linecap:round;stroke-linejoin:round;paint-order:stroke markers fill"
       id="circle1347"
       cx="15.598601"
       cy="27.543032"
       transform="matrix(0.49817884,0.8670743,0.88429777,-0.46692339,0,0)"
       rx="1.3555183"
       ry="1.3864497" /><ellipse
       style="fill:#899fac;stroke-width:1.57485;stroke-linecap:round;stroke-linejoin:round;paint-order:stroke markers fill"
       id="circle1349"
       cx="10.122393"
       cy="-25.99859"
       transform="matrix(0.51911497,-0.85470442,-0.87318674,-0.4873858,0,0)"
       rx="1.3567131"
       ry="1.3852806" /><ellipse
       style="fill:#899fac;stroke-width:1.57437;stroke-linecap:round;stroke-linejoin:round;paint-order:stroke markers fill"
       id="circle1351"
       cx="-26.195856"
       cy="5.1530323"
       transform="matrix(-0.99134246,-0.13130168,-0.14264753,0.98977355,0,0)"
       rx="1.3986441"
       ry="1.3429325" /><ellipse
       style="fill:#899fac;stroke-width:1.57441;stroke-linecap:round;stroke-linejoin:round;paint-order:stroke markers fill"
       id="circle1355"
       cx="17.751957"
       cy="21.223759"
       transform="matrix(0.19139159,0.98151376,0.98431986,-0.17639279,0,0)"
       rx="1.3438202"
       ry="1.3977911" /><ellipse
       style="fill:#899fac;stroke-width:1.57482;stroke-linecap:round;stroke-linejoin:round;paint-order:stroke markers fill"
       id="circle1357"
       cx="12.410162"
       cy="-28.488693"
       transform="matrix(0.88272226,-0.46989511,-0.50122604,-0.86531639,0,0)"
       rx="1.3862828"
       ry="1.355689" /><ellipse
       style="fill:#899fac;stroke-width:1.57498;stroke-linecap:round;stroke-linejoin:round;paint-order:stroke markers fill"
       id="circle1359"
       cx="-36.449726"
       cy="1.5382545"
       transform="matrix(-0.79399608,-0.60792287,-0.64009152,0.76829867,0,0)"
       rx="1.3774533"
       ry="1.3646593" /><ellipse
       style="fill:#899fac;stroke-width:1.57437;stroke-linecap:round;stroke-linejoin:round;paint-order:stroke markers fill"
       id="circle1361"
       cx="22.364088"
       cy="35.530354"
       transform="matrix(-0.13909929,0.99027844,0.99177086,0.12802567,0,0)"
       rx="1.3428779"
       ry="1.3986964" /><ellipse
       style="fill:#899fac;stroke-width:1.57495;stroke-linecap:round;stroke-linejoin:round;paint-order:stroke markers fill"
       id="circle1363"
       cx="12.757501"
       cy="-44.608856"
       transform="matrix(0.82386805,-0.56678165,-0.59927378,-0.80054415,0,0)"
       rx="1.3803031"
       ry="1.3617767" /><ellipse
       style="fill:#899fac;stroke-width:1.57433;stroke-linecap:round;stroke-linejoin:round;paint-order:stroke markers fill"
       id="circle1365"
       cx="-44.601231"
       cy="25.637012"
       transform="matrix(-0.99787193,-0.06520438,-0.07092327,0.99748177,0,0)"
       rx="1.3994441"
       ry="1.3420987" /><ellipse
       style="fill:#899fac;stroke-width:1.57499;stroke-linecap:round;stroke-linejoin:round;paint-order:stroke markers fill"
       id="circle1367"
       cx="50.603886"
       cy="18.917147"
       transform="matrix(0.651111,0.75898252,0.78529629,-0.61912013,0,0)"
       rx="1.3654733"
       ry="1.3766464" /><ellipse
       style="fill:#899fac;stroke-width:1.5746;stroke-linecap:round;stroke-linejoin:round;paint-order:stroke markers fill"
       id="circle1369"
       cx="-5.2791972"
       cy="-56.871475"
       transform="matrix(0.34856566,-0.93728437,-0.94626169,-0.32340194,0,0)"
       rx="1.3484766"
       ry="1.3932995" /><ellipse
       style="fill:#899fac;stroke-width:1.57432;stroke-linecap:round;stroke-linejoin:round;paint-order:stroke markers fill"
       id="circle1371"
       cx="-53.698574"
       cy="21.291178"
       transform="matrix(-0.99896307,0.0455279,0.04953095,0.99877259,0,0)"
       rx="1.3995785"
       ry="1.3419586" /><rect
       style="fill:#ffd700;stroke:none;stroke-width:1.24056;stroke-linecap:round;stroke-linejoin:round;paint-order:stroke markers fill"
       id="rect1430"
       width="4.5000925"
       height="3.1106868"
       x="20.740669"
       y="-66.195992"
       transform="scale(1,-1)" /><path
       style="fill:#b22222;stroke:none;stroke-width:0.75px;stroke-linecap:butt;stroke-linejoin:miter;stroke-opacity:1"
       d="m 20.909607,65.732393 c 0,0 -0.848697,7.212104 -3.44142,9.826124 l 11.425508,0.08516 C 26.348349,72.97516 25.31462,65.732393 25.31462,65.732393"
       id="path1432"
       sodipodi:nodetypes="cccc" /><path
       style="fill:#b3d0e0;fill-opacity:1;stroke:none;stroke-width:0.75px;stroke-linecap:butt;stroke-linejoin:miter;stroke-opacity:1"
       d="M 8.3119747,48.590485 C 10.750095,51.86038 36.541961,51.368715 38.053065,48.81584 39.812254,63.492089 11.353481,72.489956 8.3119747,48.590485 Z"
       id="path1434"
       sodipodi:nodetypes="ccc" /><path
       style="fill:#b3d0e0;fill-opacity:1;stroke:none;stroke-width:0.75px;stroke-linecap:butt;stroke-linejoin:miter;stroke-opacity:1"
       d="M 8.3119747,48.590485 C 10.750095,51.86038 36.541961,51.368715 38.053065,48.81584 39.812254,63.492089 11.353481,72.489956 8.3119747,48.590485 Z"
       id="path1457"
       sodipodi:nodetypes="ccc" /></g></svg>
