<?xml version="1.0" encoding="UTF-8" standalone="no"?>
<svg
   xmlns:dc="http://purl.org/dc/elements/1.1/"
   xmlns:cc="http://creativecommons.org/ns#"
   xmlns:rdf="http://www.w3.org/1999/02/22-rdf-syntax-ns#"
   xmlns:svg="http://www.w3.org/2000/svg"
   xmlns="http://www.w3.org/2000/svg"
   version="1.1"
   id="svg833"
   xml:space="preserve"
   width="55.355305"
   height="98.892906"
   viewBox="0 0 55.355304 98.892906"><metadata
     id="metadata839"><rdf:RDF><cc:Work
         rdf:about=""><dc:format>image/svg+xml</dc:format><dc:type
           rdf:resource="http://purl.org/dc/dcmitype/StillImage" /><dc:title></dc:title></cc:Work></rdf:RDF></metadata><defs
     id="defs837"><clipPath
       clipPathUnits="userSpaceOnUse"
       id="clipPath913"><path
         d="M -14.17339,11.33855 V 3.68521 h 28.34678 v 7.65334 z"
         id="path911" /></clipPath></defs><g
     id="g841"
     transform="matrix(1.3333333,0,0,-1.3333333,4.0549867,95.026523)"><g
       id="g849"
       transform="translate(17.717,-2.835)"><g
         id="g851"><path
           d="M 8.72896,56.26843 C 9.7466,58.03105 9.58243,60.03099 8.36223,60.73547 7.14204,61.43994 5.32797,60.58215 4.31032,58.81953 3.29266,57.05692 3.45685,55.05696 4.67703,54.3525 5.89722,53.64801 7.7113,54.5058 8.72896,56.26843 Z"
           style="fill:#4695d6;fill-opacity:1;fill-rule:nonzero;stroke:none"
           id="path853" /></g><g
         id="g855"><path
           d="m -4.31032,58.81953 c -1.01765,1.76262 -2.83172,2.62041 -4.05191,1.91594 -1.2202,-0.70448 -1.38437,-2.70442 -0.36673,-4.46704 1.01766,-1.76263 2.83174,-2.62042 4.05193,-1.91593 1.22018,0.70446 1.38437,2.70442 0.36671,4.46703 z"
           style="fill:#4695d6;fill-opacity:1;fill-rule:nonzero;stroke:none"
           id="path857" /></g><g
         id="g859"><path
           d="M 17.00824,22.67752 C 17.00824,11.33855 9.92155,5.38594 0,5.38594 c -9.92155,0 -17.00824,5.95261 -17.00824,17.29158 0,14.1734 7.08669,24.09451 17.00824,24.09451 9.92155,0 17.00824,-9.92111 17.00824,-24.09451 z"
           style="fill:#99c5e8;fill-opacity:1;fill-rule:nonzero;stroke:none"
           id="path861" /></g><g
         id="g863"><path
           d="m 9.92155,35.15019 c -2.0353,0 -3.68522,-3.04594 -3.68522,-6.80339 0,-3.75744 1.64992,-6.80339 3.68522,-6.80339 2.0353,0 3.68522,3.04595 3.68522,6.80339 0,3.75745 -1.64992,6.80339 -3.68522,6.80339 z"
           style="fill:#4695d6;fill-opacity:1;fill-rule:nonzero;stroke:none"
           id="path865" /></g><g
         id="g867"><path
           d="m -9.92155,21.54341 c 2.0353,0 3.68522,3.04595 3.68522,6.80339 0,3.75745 -1.64992,6.80339 -3.68522,6.80339 -2.0353,0 -3.68522,-3.04594 -3.68522,-6.80339 0,-3.75744 1.64992,-6.80339 3.68522,-6.80339 z"
           style="fill:#4695d6;fill-opacity:1;fill-rule:nonzero;stroke:none"
           id="path869" /></g><g
         id="g871"><path
           d="m 10.20485,49.89021 c 0,5.63605 -4.5688,10.20487 -10.20485,10.20487 -5.63605,0 -10.20485,-4.56882 -10.20485,-10.20487 0,-5.63606 4.5688,-10.20486 10.20485,-10.20486 5.63605,0 10.20485,4.5688 10.20485,10.20486 z"
           style="fill:#99c5e8;fill-opacity:1;fill-rule:nonzero;stroke:none"
           id="path873" /></g><g
         id="g875"><path
           d="m -0.85036,51.8747 c 0,1.8786 -1.01532,3.40147 -2.26779,3.40147 -1.25247,0 -2.26778,-1.52287 -2.26778,-3.40147 0,-1.8786 1.01531,-3.40148 2.26778,-3.40148 1.25247,0 2.26779,1.52288 2.26779,3.40148 z"
           style="fill:#ffffff;fill-opacity:1;fill-rule:nonzero;stroke:none"
           id="path877" /></g><g
         id="g879"><path
           d="m 5.38593,51.8747 c 0,1.8786 -1.01531,3.40147 -2.26778,3.40147 -1.25247,0 -2.26779,-1.52287 -2.26779,-3.40147 0,-1.8786 1.01532,-3.40148 2.26779,-3.40148 1.25247,0 2.26778,1.52288 2.26778,3.40148 z"
           style="fill:#ffffff;fill-opacity:1;fill-rule:nonzero;stroke:none"
           id="path881" /></g><g
         id="g883"><path
           d="m -1.8426,50.45728 c 0,1.09599 -0.50757,1.98448 -1.13369,1.98448 -0.6261,0 -1.13366,-0.88849 -1.13366,-1.98448 0,-1.09601 0.50756,-1.98448 1.13366,-1.98448 0.62612,0 1.13369,0.88847 1.13369,1.98448 z"
           style="fill:#000000;fill-opacity:1;fill-rule:nonzero;stroke:none"
           id="path885" /></g><g
         id="g887"><path
           d="m 4.10995,50.45728 c 0,1.09599 -0.50756,1.98448 -1.13366,1.98448 -0.62612,0 -1.13369,-0.88849 -1.13369,-1.98448 0,-1.09601 0.50757,-1.98448 1.13369,-1.98448 0.6261,0 1.13366,0.88847 1.13366,1.98448 z"
           style="fill:#000000;fill-opacity:1;fill-rule:nonzero;stroke:none"
           id="path889" /></g><g
         id="g891"><path
           d="m 11.9056,43.93764 c 0,3.13109 -5.33025,5.66926 -11.9056,5.66926 -6.57535,0 -11.9056,-2.53817 -11.9056,-5.66926 0,-3.13111 5.33025,-5.66928 11.9056,-5.66928 6.57535,0 11.9056,2.53817 11.9056,5.66928 z"
           style="fill:#6baade;fill-opacity:1;fill-rule:nonzero;stroke:none"
           id="path893" /></g><g
         id="g895"><path
           d="m -0.99223,46.20541 c 0,0.54801 -0.44425,0.99224 -0.99224,0.99224 -0.548,0 -0.99223,-0.44423 -0.99223,-0.99224 0,-0.548 0.44423,-0.99223 0.99223,-0.99223 0.54799,0 0.99224,0.44423 0.99224,0.99223 z"
           style="fill:#316896;fill-opacity:1;fill-rule:nonzero;stroke:none"
           id="path897" /></g><g
         id="g899"><path
           d="m 2.9767,46.20541 c 0,0.54801 -0.44423,0.99224 -0.99223,0.99224 -0.54799,0 -0.99224,-0.44423 -0.99224,-0.99224 0,-0.548 0.44425,-0.99223 0.99224,-0.99223 0.548,0 0.99223,0.44423 0.99223,0.99223 z"
           style="fill:#316896;fill-opacity:1;fill-rule:nonzero;stroke:none"
           id="path901" /></g><g
         id="g903"><path
           d="m 3.54333,42.5202 c -2.10728,-1.76826 -5.18101,-1.76826 -7.28829,0"
           style="fill:none;stroke:#316896;stroke-width:0.3985;stroke-linecap:butt;stroke-linejoin:miter;stroke-miterlimit:10;stroke-dasharray:none;stroke-opacity:1"
           id="path905" /></g><g
         id="g907"><g
           id="g909"
           clip-path="url(#clipPath913)"><g
             id="g915"><path
               d="m -2.5511,4.25183 c 0,2.66144 -2.03061,4.81891 -4.53559,4.81891 -2.50495,0 -4.53558,-2.15747 -4.53558,-4.81891 0,-2.66143 2.03063,-4.81889 4.53558,-4.81889 2.50498,0 4.53559,2.15746 4.53559,4.81889 z"
               style="fill:#4695d6;fill-opacity:1;fill-rule:nonzero;stroke:none"
               id="path917" /></g><g
             id="g919"><path
               d="m 11.62227,4.25183 c 0,2.66144 -2.03063,4.81891 -4.53558,4.81891 -2.50498,0 -4.53559,-2.15747 -4.53559,-4.81891 0,-2.66143 2.03061,-4.81889 4.53559,-4.81889 2.50495,0 4.53558,2.15746 4.53558,4.81889 z"
               style="fill:#4695d6;fill-opacity:1;fill-rule:nonzero;stroke:none"
               id="path921" /></g><g
             id="g923"><path
               d="m 8.5041,3.68521 c 0,1.56564 -0.6346,2.83486 -1.41741,2.83486 -0.78283,0 -1.41742,-1.26922 -1.41742,-2.83486 0,-1.56566 0.63459,-2.83485 1.41742,-2.83485 0.78281,0 1.41741,1.26919 1.41741,2.83485 z"
               style="fill:#99c5e8;fill-opacity:1;fill-rule:nonzero;stroke:none"
               id="path925" /></g><g
             id="g927"><path
               d="m 5.10263,3.11815 c 0,1.56564 -0.6346,2.83485 -1.41742,2.83485 -0.78282,0 -1.41742,-1.26921 -1.41742,-2.83485 0,-1.56566 0.6346,-2.83485 1.41742,-2.83485 0.78282,0 1.41742,1.26919 1.41742,2.83485 z"
               style="fill:#99c5e8;fill-opacity:1;fill-rule:nonzero;stroke:none"
               id="path929" /></g><g
             id="g931"><path
               d="m 11.9056,3.11815 c 0,1.56564 -0.6346,2.83485 -1.41743,2.83485 -0.78282,0 -1.41741,-1.26921 -1.41741,-2.83485 0,-1.56566 0.63459,-2.83485 1.41741,-2.83485 0.78283,0 1.41743,1.26919 1.41743,2.83485 z"
               style="fill:#99c5e8;fill-opacity:1;fill-rule:nonzero;stroke:none"
               id="path933" /></g><g
             id="g935"><path
               d="m -5.66927,3.68521 c 0,1.56564 -0.63459,2.83486 -1.41742,2.83486 -0.78281,0 -1.41741,-1.26922 -1.41741,-2.83486 0,-1.56566 0.6346,-2.83485 1.41741,-2.83485 0.78283,0 1.41742,1.26919 1.41742,2.83485 z"
               style="fill:#99c5e8;fill-opacity:1;fill-rule:nonzero;stroke:none"
               id="path937" /></g><g
             id="g939"><path
               d="m -2.26779,3.11815 c 0,1.56564 -0.6346,2.83485 -1.41742,2.83485 -0.78282,0 -1.41742,-1.26921 -1.41742,-2.83485 0,-1.56566 0.6346,-2.83485 1.41742,-2.83485 0.78282,0 1.41742,1.26919 1.41742,2.83485 z"
               style="fill:#99c5e8;fill-opacity:1;fill-rule:nonzero;stroke:none"
               id="path941" /></g><g
             id="g943"><path
               d="m -9.07076,3.11815 c 0,1.56564 -0.63459,2.83485 -1.41741,2.83485 -0.78283,0 -1.41743,-1.26921 -1.41743,-2.83485 0,-1.56566 0.6346,-2.83485 1.41743,-2.83485 0.78282,0 1.41741,1.26919 1.41741,2.83485 z"
               style="fill:#99c5e8;fill-opacity:1;fill-rule:nonzero;stroke:none"
               id="path945" /></g></g></g></g><g
       id="g947"
       transform="translate(17.717,-2.835)" /><path
       style="fill:#ffffff;stroke:none;stroke-width:0.857978px;stroke-linecap:butt;stroke-linejoin:miter;stroke-opacity:1"
       d="m 9.7895122,53.497925 c 5.7834468,-1.572341 12.1011948,-1.260389 15.8355948,0.108316 0.162294,1.491517 -4.027975,7.172923 -3.803774,8.341661 0.325637,1.712415 4.188834,1.624629 4.008369,3.358364 -0.0058,1.05374 -3.710148,2.628572 -5.795886,2.112519 C 14.113697,65.954027 9.9815715,60.490394 9.7895122,53.497925 Z"
       id="path1003" /></g></svg>
