<?xml version="1.0" encoding="UTF-8" standalone="no"?>
<svg
   xmlns:dc="http://purl.org/dc/elements/1.1/"
   xmlns:cc="http://creativecommons.org/ns#"
   xmlns:rdf="http://www.w3.org/1999/02/22-rdf-syntax-ns#"
   xmlns:svg="http://www.w3.org/2000/svg"
   xmlns="http://www.w3.org/2000/svg"
   xmlns:sodipodi="http://sodipodi.sourceforge.net/DTD/sodipodi-0.dtd"
   xmlns:inkscape="http://www.inkscape.org/namespaces/inkscape"
   version="1.1"
   id="svg10"
   xml:space="preserve"
   width="69.325089"
   height="101.92707"
   viewBox="0 0 69.325089 101.92707"
   sodipodi:docname="pig.svg"
   inkscape:version="1.0.2 (e86c8708, 2021-01-15)"><metadata
     id="metadata16"><rdf:RDF><cc:Work
         rdf:about=""><dc:format>image/svg+xml</dc:format><dc:type
           rdf:resource="http://purl.org/dc/dcmitype/StillImage" /><dc:title></dc:title></cc:Work></rdf:RDF></metadata><defs
     id="defs14" /><sodipodi:namedview
     pagecolor="#ffffff"
     bordercolor="#666666"
     borderopacity="1"
     objecttolerance="10"
     gridtolerance="10"
     guidetolerance="10"
     inkscape:pageopacity="0"
     inkscape:pageshadow="2"
     inkscape:window-width="1440"
     inkscape:window-height="847"
     id="namedview12"
     showgrid="false"
     fit-margin-top="5"
     fit-margin-left="5"
     fit-margin-right="5"
     fit-margin-bottom="5"
     inkscape:zoom="2.4575887"
     inkscape:cx="39.223849"
     inkscape:cy="60.137293"
     inkscape:window-x="0"
     inkscape:window-y="25"
     inkscape:window-maximized="0"
     inkscape:current-layer="g18" /><g
     id="g18"
     inkscape:groupmode="layer"
     inkscape:label="document"
     transform="matrix(1.3333333,0,0,-1.3333333,8.2552133,98.81618)"><g
       id="g20"
       transform="translate(17.717,-2.835)"><g
         id="g22"><g
           id="g24"><g
             id="g26"><g
               id="g28"><path
                 d="m 23.899,16.52596 c 0.50478,-5.00878 -4.03903,-6.29299 -5.8025,-4.35653 -1.76302,1.93605 -2.1856,4.98587 0.47363,5.66063 2.79463,0.71152 3.42398,-1.87636 2.56236,-3.80416 C 18.1761,7.6451 10.04309,10.09152 7.4777,12.01329 5.57584,13.54707 5.06847,17.22365 9.04823,17.94339 17.00824,19.37769 14.54192,8.63992 5.94695,9.41676 2.2933,9.7455 2.2933,14.84251 2.2933,14.84251"
                 style="fill:none;stroke:#f1a48e;stroke-width:0.79701;stroke-linecap:butt;stroke-linejoin:miter;stroke-miterlimit:10;stroke-dasharray:none;stroke-opacity:1"
                 id="path30" /></g><g
               id="g32"><path
                 d="M 17.00824,22.67752 C 17.00824,11.33855 9.92155,4.53558 0,4.53558 c -9.92155,0 -17.00824,6.80297 -17.00824,18.14194 0,14.1734 7.08669,19.84268 17.00824,19.84268 9.92155,0 17.00824,-5.66928 17.00824,-21.2601 z"
                 style="fill:#f7cdc1;fill-opacity:1;fill-rule:nonzero;stroke:none"
                 id="path34" /></g><g
               id="g36"><path
                 d="m -6.809,27.84505 c -1.67782,2.15144 -3.73885,2.34695 -4.59788,0.43945 -0.85859,-1.90791 -0.19249,-5.19608 1.48533,-7.3475 0.53591,-0.68343 1.13108,-1.19641 1.7293,-1.48534 0.38279,0.45631 1.1112,1.98708 1.1112,1.98708 0,0 2.00695,-0.71715 2.51432,-0.29198 0,0 -0.561,4.54684 -2.24227,6.69829 z"
                 style="fill:#f1a48e;fill-opacity:1;fill-rule:nonzero;stroke:none"
                 id="path38" /></g><g
               id="g40"><path
                 d="m 6.809,27.84505 c 1.67782,2.15144 3.73885,2.34695 4.59788,0.43945 0.85859,-1.90791 0.19249,-5.19608 -1.48533,-7.3475 -0.53591,-0.68343 -1.13108,-1.19641 -1.7293,-1.48534 -0.38279,0.45631 -1.1112,1.98708 -1.1112,1.98708 0,0 -2.00695,-0.71715 -2.51432,-0.29198 0,0 0.561,4.54684 2.24227,6.69829 z"
                 style="fill:#f1a48e;fill-opacity:1;fill-rule:nonzero;stroke:none"
                 id="path42" /></g><g
               id="g44"><path
                 d="m 14.17339,46.48874 c 0,7.82785 -6.34555,14.1734 -14.17339,14.1734 -7.82784,0 -14.17339,-6.34555 -14.17339,-14.1734 0,-7.82785 6.34555,-14.1734 14.17339,-14.1734 7.82784,0 14.17339,6.34555 14.17339,14.1734 z"
                 style="fill:#f7cdc1;fill-opacity:1;fill-rule:nonzero;stroke:none"
                 id="path46" /></g><g
               id="g48"><path
                 d="m -1.98405,51.59138 c 0,0.31318 -0.25387,0.56705 -0.56705,0.56705 -0.31317,0 -0.56705,-0.25387 -0.56705,-0.56705 0,-0.31317 0.25388,-0.56704 0.56705,-0.56704 0.31318,0 0.56705,0.25387 0.56705,0.56704 z"
                 style="fill:#808080;fill-opacity:1;fill-rule:nonzero;stroke:none"
                 id="path50" /></g><g
               id="g52"><path
                 d="m 3.11815,51.59138 c 0,0.31318 -0.25388,0.56705 -0.56705,0.56705 -0.31318,0 -0.56705,-0.25387 -0.56705,-0.56705 0,-0.31317 0.25387,-0.56704 0.56705,-0.56704 0.31317,0 0.56705,0.25387 0.56705,0.56704 z"
                 style="fill:#808080;fill-opacity:1;fill-rule:nonzero;stroke:none"
                 id="path54" /></g><g
               id="g56"><path
                 d="m 5.1022,45.92168 c 0,2.19177 -2.28431,3.96852 -5.1022,3.96852 -2.81789,0 -5.1022,-1.77675 -5.1022,-3.96852 0,-2.19178 2.28431,-3.96852 5.1022,-3.96852 2.81789,0 5.1022,1.77674 5.1022,3.96852 z"
                 style="fill:#f1a48e;fill-opacity:1;fill-rule:nonzero;stroke:none"
                 id="path58" /></g><g
               id="g60"><path
                 d="m -0.7085,45.92168 c 0,0.548 -0.44423,0.99223 -0.99223,0.99223 -0.548,0 -0.99223,-0.44423 -0.99223,-0.99223 0,-0.54801 0.44423,-0.99224 0.99223,-0.99224 0.548,0 0.99223,0.44423 0.99223,0.99224 z"
                 style="fill:#808080;fill-opacity:1;fill-rule:nonzero;stroke:none"
                 id="path62" /></g><g
               id="g64"><path
                 d="m 2.69296,45.92168 c 0,0.548 -0.44423,0.99223 -0.99223,0.99223 -0.548,0 -0.99223,-0.44423 -0.99223,-0.99223 0,-0.54801 0.44423,-0.99224 0.99223,-0.99224 0.548,0 0.99223,0.44423 0.99223,0.99224 z"
                 style="fill:#808080;fill-opacity:1;fill-rule:nonzero;stroke:none"
                 id="path66" /></g><g
               id="g68"><path
                 d="m 2.97629,41.3865 c -1.6859,-1.41465 -4.14498,-1.41465 -5.83086,0"
                 style="fill:none;stroke:#808080;stroke-width:0.3985;stroke-linecap:butt;stroke-linejoin:miter;stroke-miterlimit:10;stroke-dasharray:none;stroke-opacity:1"
                 id="path70" /></g><g
               id="g72"><path
                 d="M 9.11617,4.25183 C 9.60233,6.06639 8.52551,7.93161 6.71095,8.41777 4.8964,8.90393 3.03117,7.82712 2.54501,6.01256 2.39056,5.43597 2.39056,4.82841 2.54501,4.25183 h 1.99057 c 0.86152,0.49739 1.68959,0.49739 2.55111,0 z"
                 style="fill:#f1a48e;fill-opacity:1;fill-rule:nonzero;stroke:none"
                 id="path74" /></g><g
               id="g76"><path
                 d="m -9.11617,4.25183 c -0.48616,1.81456 0.59066,3.67978 2.40522,4.16594 1.81455,0.48616 3.67978,-0.59065 4.16594,-2.40521 0.15445,-0.57659 0.15445,-1.18415 0,-1.76073 h -1.99057 c -0.86152,0.49739 -1.68959,0.49739 -2.55111,0 z"
                 style="fill:#f1a48e;fill-opacity:1;fill-rule:nonzero;stroke:none"
                 id="path78" /></g><g
               id="g80"><path
                 d="m 6.23631,57.8048 c 0,3.37898 7.78397,6.11738 7.78397,6.11738 0,0 1.00348,-11.1971 -3.47243,-11.1971 -2.35301,0 -4.31154,1.70375 -4.31154,5.07972 z"
                 style="fill:#f1a48e;fill-opacity:1;fill-rule:nonzero;stroke:none"
                 id="path82" /></g><g
               id="g84"><path
                 d="m 6.23631,57.8048 c 1.13369,3.37898 7.08672,5.12513 7.08672,4.55808 0,0 0.56705,-8.50413 -2.77518,-8.50413 C 8.19484,53.29213 6.23631,53.29213 6.23631,57.8048 Z"
                 style="fill:#f7cdc1;fill-opacity:1;fill-rule:nonzero;stroke:none"
                 id="path86" /></g><g
               id="g88"><path
                 d="m -6.23631,57.8048 c 0,3.37898 -7.78397,6.11738 -7.78397,6.11738 0,0 -1.00348,-11.1971 3.47243,-11.1971 2.35301,0 4.31154,1.70375 4.31154,5.07972 z"
                 style="fill:#f1a48e;fill-opacity:1;fill-rule:nonzero;stroke:none"
                 id="path90" /></g><g
               id="g92"><path
                 d="m -6.23631,57.8048 c -1.13369,3.37898 -7.08672,5.12513 -7.08672,4.55808 0,0 -0.56705,-8.50413 2.77518,-8.50413 2.35301,-0.56662 4.31154,-0.56662 4.31154,3.94605 z"
                 style="fill:#f7cdc1;fill-opacity:1;fill-rule:nonzero;stroke:none"
                 id="path94" /></g></g><g
             id="g96" /></g></g></g><circle
       style="fill:#add8e6;fill-opacity:0.53629;stroke-width:0.98294;stroke-linecap:round;stroke-linejoin:round;paint-order:stroke markers fill"
       id="path98"
       cx="18.18359"
       cy="-49.737137"
       transform="scale(1,-1)"
       r="20.625" /></g></svg>
